<svg width="195" height="114" viewBox="0 0 195 114" fill="none" xmlns="http://www.w3.org/2000/svg">
<path d="M83.3969 46.1818V51.8636H69.0219V46.1818H83.3969ZM71.8059 40.9545H79.6469V60.983C79.6469 61.286 79.6989 61.5417 79.8031 61.75C79.9073 61.9489 80.0683 62.1004 80.2861 62.2045C80.5039 62.2992 80.7832 62.3466 81.1241 62.3466C81.3609 62.3466 81.6355 62.3182 81.948 62.2614C82.27 62.2045 82.5067 62.1572 82.6582 62.1193L83.7946 67.6307C83.4442 67.7348 82.9423 67.8627 82.2889 68.0142C81.645 68.1657 80.8779 68.2652 79.9878 68.3125C78.1885 68.4072 76.6781 68.2225 75.4565 67.7585C74.2349 67.285 73.3164 66.5417 72.7008 65.5284C72.0853 64.5152 71.787 63.2462 71.8059 61.7216V40.9545ZM96.8734 68.3977C94.506 68.3977 92.4795 67.929 90.7939 66.9915C89.1083 66.0445 87.8156 64.7282 86.916 63.0426C86.0164 61.3475 85.5666 59.3826 85.5666 57.1477C85.5666 54.9129 86.0164 52.9527 86.916 51.267C87.8156 49.572 89.1083 48.2557 90.7939 47.3182C92.4795 46.3712 94.506 45.8977 96.8734 45.8977C99.2408 45.8977 101.267 46.3712 102.953 47.3182C104.639 48.2557 105.931 49.572 106.831 51.267C107.73 52.9527 108.18 54.9129 108.18 57.1477C108.18 59.3826 107.73 61.3475 106.831 63.0426C105.931 64.7282 104.639 66.0445 102.953 66.9915C101.267 67.929 99.2408 68.3977 96.8734 68.3977ZM96.9302 62.6023C97.5931 62.6023 98.166 62.3797 98.649 61.9347C99.1319 61.4896 99.506 60.8551 99.7711 60.0312C100.036 59.2074 100.169 58.2273 100.169 57.0909C100.169 55.9451 100.036 54.965 99.7711 54.1506C99.506 53.3267 99.1319 52.6922 98.649 52.2472C98.166 51.8021 97.5931 51.5795 96.9302 51.5795C96.2295 51.5795 95.6281 51.8021 95.1263 52.2472C94.6244 52.6922 94.2408 53.3267 93.9757 54.1506C93.7105 54.965 93.578 55.9451 93.578 57.0909C93.578 58.2273 93.7105 59.2074 93.9757 60.0312C94.2408 60.8551 94.6244 61.4896 95.1263 61.9347C95.6281 62.3797 96.2295 62.6023 96.9302 62.6023Z" fill="#F2F2F2"/>
<path d="M119.26 68.2841C117.707 68.2841 116.277 67.8769 114.97 67.0625C113.673 66.2481 112.631 65.0123 111.845 63.3551C111.068 61.6979 110.68 59.6098 110.68 57.0909C110.68 54.4583 111.087 52.3182 111.902 50.6705C112.726 49.0227 113.786 47.8153 115.084 47.0483C116.39 46.2812 117.764 45.8977 119.203 45.8977C120.283 45.8977 121.229 46.0871 122.044 46.4659C122.858 46.8352 123.54 47.3324 124.089 47.9574C124.639 48.5729 125.055 49.25 125.339 49.9886H125.453V38.9091H133.294V68H125.51V64.4205H125.339C125.036 65.1591 124.601 65.822 124.033 66.4091C123.474 66.9867 122.792 67.446 121.987 67.7869C121.192 68.1184 120.283 68.2841 119.26 68.2841ZM122.158 62.2614C122.877 62.2614 123.493 62.053 124.004 61.6364C124.525 61.2102 124.923 60.6136 125.197 59.8466C125.481 59.0701 125.623 58.1515 125.623 57.0909C125.623 56.0114 125.481 55.0881 125.197 54.321C124.923 53.5445 124.525 52.9527 124.004 52.5455C123.493 52.1288 122.877 51.9205 122.158 51.9205C121.438 51.9205 120.822 52.1288 120.311 52.5455C119.809 52.9527 119.421 53.5445 119.146 54.321C118.881 55.0881 118.748 56.0114 118.748 57.0909C118.748 58.1705 118.881 59.0985 119.146 59.875C119.421 60.642 119.809 61.2339 120.311 61.6506C120.822 62.0578 121.438 62.2614 122.158 62.2614ZM147.655 68.3977C145.287 68.3977 143.261 67.929 141.575 66.9915C139.89 66.0445 138.597 64.7282 137.697 63.0426C136.798 61.3475 136.348 59.3826 136.348 57.1477C136.348 54.9129 136.798 52.9527 137.697 51.267C138.597 49.572 139.89 48.2557 141.575 47.3182C143.261 46.3712 145.287 45.8977 147.655 45.8977C150.022 45.8977 152.049 46.3712 153.734 47.3182C155.42 48.2557 156.712 49.572 157.612 51.267C158.512 52.9527 158.961 54.9129 158.961 57.1477C158.961 59.3826 158.512 61.3475 157.612 63.0426C156.712 64.7282 155.42 66.0445 153.734 66.9915C152.049 67.929 150.022 68.3977 147.655 68.3977ZM147.711 62.6023C148.374 62.6023 148.947 62.3797 149.43 61.9347C149.913 61.4896 150.287 60.8551 150.552 60.0312C150.818 59.2074 150.95 58.2273 150.95 57.0909C150.95 55.9451 150.818 54.965 150.552 54.1506C150.287 53.3267 149.913 52.6922 149.43 52.2472C148.947 51.8021 148.374 51.5795 147.711 51.5795C147.011 51.5795 146.409 51.8021 145.908 52.2472C145.406 52.6922 145.022 53.3267 144.757 54.1506C144.492 54.965 144.359 55.9451 144.359 57.0909C144.359 58.2273 144.492 59.2074 144.757 60.0312C145.022 60.8551 145.406 61.4896 145.908 61.9347C146.409 62.3797 147.011 62.6023 147.711 62.6023Z" fill="#8284FA"/>
<path d="M178.254 56.4798C156.812 40.5728 130.438 32.1724 103.43 32.6474L96.9826 32.6867L93.575 27.4162C89.1943 20.6062 82.4335 15.5486 74.5244 13.165C76.1854 15.29 77.7064 17.5143 79.0784 19.8249L87.4702 33.8838L70.7223 36.5214C69.2424 36.75 67.7757 37.0533 66.3283 37.43L66.5693 76.9663C68.4692 77.5427 70.3684 78.0088 72.3433 78.4377L87.5331 81.5419L80.0272 94.5954C78.7665 96.7763 77.3735 98.8829 75.8558 100.904C83.6437 98.3777 90.3052 93.3447 94.7325 86.6423L98.0772 81.5879L104.07 81.5513C130.969 81.2965 157.038 72.4734 178.254 56.4431L178.254 56.4798ZM194.031 56.3469C194.034 57.1715 193.729 57.9695 193.173 58.5936L192.871 58.9261C168.541 80.2633 136.984 92.2216 104.174 92.5375C98.2081 101.565 89.1579 108.276 78.6053 111.497C68.0526 114.718 56.6686 114.245 46.4426 110.16C56.376 105.73 64.6136 98.3754 69.9812 89.1449C65.8515 88.2477 61.7993 87.0439 57.8604 85.5443C57.1039 85.3557 56.4323 84.9315 55.949 84.3369C55.4657 83.7424 55.1974 83.0104 55.1854 82.2535L54.8745 31.2532C54.8682 30.2244 55.886 29.1893 57.4757 28.6652C61.2026 27.1554 65.1067 26.095 69.1002 25.5077C63.643 16.3256 55.3096 9.06636 45.3072 4.78151C55.4308 0.321849 66.8792 -0.428855 77.5277 2.66871C88.1763 5.76628 97.302 12.5018 103.211 21.6252C136.213 21.0606 168.217 32.5692 192.84 53.8555C193.211 54.1724 193.508 54.5613 193.713 54.9968C193.918 55.4323 194.027 55.9048 194.031 56.3836L194.031 56.3469Z" fill="#E25858"/>
<path d="M45.4682 37.4104C45.5041 38.3296 45.3502 39.2465 45.0155 40.1075C44.6808 40.9684 44.172 41.7559 43.519 42.4239C42.8659 43.0919 42.0818 43.6269 41.2127 43.9974C40.3435 44.3679 39.4068 44.5666 38.4574 44.5817L16.0811 44.7181C14.1297 44.73 12.2537 43.9904 10.8658 42.662C9.4778 41.3336 8.69155 39.5252 8.68002 37.6346C8.6685 35.7441 9.43264 33.9263 10.8043 32.581C12.176 31.2358 14.0428 30.4734 15.9942 30.4615L38.0671 30.3269C39.0127 30.2918 39.956 30.4394 40.8421 30.7611C41.7281 31.0828 42.539 31.5721 43.2277 32.2007C43.9164 32.8292 44.469 33.5843 44.8533 34.4219C45.2376 35.2596 45.446 36.1631 45.4662 37.0797L45.4682 37.4104Z" fill="#5E60CE"/>
<path d="M45.7101 77.0933C45.7669 78.028 45.629 78.9642 45.3046 79.8464C44.9803 80.7285 44.4761 81.5385 43.8222 82.2281C43.1682 82.9178 42.3778 83.473 41.4979 83.8607C40.6181 84.2484 39.6668 84.4607 38.7007 84.485L16.3244 84.6215C14.373 84.6333 12.497 83.8938 11.109 82.5654C9.72102 81.237 8.93479 79.4286 8.92326 77.538C8.91174 75.6475 9.67586 73.8296 11.0475 72.4844C12.4192 71.1392 14.2861 70.3768 16.2375 70.3649L38.3103 70.2303C39.256 70.1952 40.1993 70.3428 41.0853 70.6645C41.9713 70.9861 42.7823 71.4755 43.471 72.104C44.1597 72.7326 44.7123 73.4877 45.0966 74.3253C45.4809 75.163 45.6892 76.0665 45.7094 76.983L45.7101 77.0933Z" fill="#5E60CE"/>
<path d="M45.5925 57.8026C45.6182 58.7193 45.4573 59.632 45.1188 60.4886C44.7804 61.3452 44.2711 62.1288 43.62 62.7948C42.969 63.4608 42.1889 63.996 41.3244 64.3699C40.4599 64.7438 39.528 64.949 38.5817 64.9739L7.74792 65.1618C5.79656 65.1737 3.92055 64.4341 2.53258 63.1057C1.1446 61.7773 0.358355 59.9689 0.346829 58.0784C0.335304 56.1879 1.09944 54.37 2.47112 53.0248C3.8428 51.6796 5.70964 50.9172 7.66101 50.9053L38.0018 50.7203C38.9474 50.6852 39.8907 50.8327 40.7767 51.1544C41.6627 51.4761 42.4737 51.9655 43.1624 52.594C43.8511 53.2226 44.4037 53.9777 44.788 54.8153C45.1723 55.653 45.3806 56.5564 45.4008 57.473L45.5925 57.8026Z" fill="#5E60CE"/>
</svg>
